<svg xmlns="http://www.w3.org/2000/svg" viewBox="0 0 32 32" role="img" aria-label="Ko-fi">
  <circle cx="16" cy="16" r="16" fill="#FF5E5B"/>
  <path fill="#FFFFFF" d="M11 11h10c.6 0 1 .4 1 1v1.2c0 2.8-1.8 5.2-4.3 6.1l.5 2.4c.1.5-.3.9-.8.9h-2.1c-.4 0-.7-.3-.8-.7l-.5-2.3H13c-.6 0-1-.4-1-1v-1.2c0-.6.4-1 1-1zm1.2 2.4v.8h7.6v-.8c0-1.5-1.1-2.8-2.6-3-.3 0-.6-.1-.9-.1h-2.4c-.5 0-1 .1-1.4.3-1 .5-1.7 1.5-1.7 2.8z"/>
  <path fill="#FFFFFF" d="M21.5 12.5c.8 0 1.5.7 1.5 1.5v.3c0 1.9-1.5 3.4-3.4 3.4h-.6v-1.2h.6c1.2 0 2.2-1 2.2-2.2v-.3c0-.2-.2-.4-.4-.4h-1.9v-1.5h1z"/>
</svg>
